<svg version="1.1" xmlns="http://www.w3.org/2000/svg">
  <!-- letter: B -->
  <path id="letter-b" fill-rule="evenodd" d="M61.5,169.7 C101.7,169.7 122.7,144.8 122.7,120.1 C122.7,107 117.1,94.8 106.9,85.8 L106.1,85.1 L106.9,84.4 C117.1,75.3 122.7,63.1 122.7,50.1 C122.7,36.8 116.6,23.9 105.9,14.8 C94.8,5.4 79.4,0.5 61.5,0.5 L0.1,0.5 L0.1,169.9 C0.8,169.7 61.5,169.7 61.5,169.7 Z M73.3,99.6 C84.6,99.6 93.7,108.8 93.7,120 C93.7,131.2 84.5,140.4 73.3,140.4 L29.3,140.4 L29.3,99.5 L73.3,99.6 Z M73.5,69.9 L29.3,69.9 L29.3,29.5 L73.5,29.5 C84.7,29.5 93.7,38.6 93.7,49.7 C93.7,60.8 84.6,69.9 73.5,69.9 Z"/>
  <!-- letter: R -->
  <path id="letter-r" fill-rule="evenodd" d="M29.5,99.6 C29.7,99.6 73.5,99.6 73.5,99.6 C84.8,99.6 93.9,108.8 93.9,120 L93.9,169.7 L123,169.7 L123,120.1 C123,107 117.4,94.8 107.2,85.8 L106.4,85.1 L107.2,84.4 C117.4,75.3 123,63.1 123,50.1 C123,36.8 116.9,23.9 106.2,14.8 C95.1,5.4 79.7,0.5 61.8,0.5 L0.4,0.5 L0.4,169.9 L29.5,169.9 L29.5,99.6 Z M73.7,69.9 L29.5,69.9 L29.5,29.5 L73.7,29.5 C84.9,29.5 93.9,38.6 93.9,49.7 C93.9,60.8 84.8,69.9 73.7,69.9 Z"/>
  <!-- letter: I -->
  <polygon id="letter-i" points=".3 .3 .3 169.7 29.5 169.7 29.4 .3"/>
  <!-- letter: D -->
  <path id="letter-d" fill-rule="evenodd" d="M61.3,169.7 C108,169.7 143.3,133.2 143.3,84.9 C143.3,36.7 108.1,0.3 61.3,0.3 L0.9,0.3 L0.9,169.7 L61.3,169.7 Z M61.3,140.4 L30,140.4 L30,29.5 L61.3,29.5 C93.8,29.5 113.9,50.8 113.9,85 C113.9,119.2 93.8,140.4 61.3,140.4 Z"/>
</svg>