<svg version="1.1" xmlns="http://www.w3.org/2000/svg">
  <!-- letter: B -->
  <path id="letter-b" fill-rule="evenodd" d="M114.1,542.3c-1.8-1.5-4.3-2.3-7.1-2.3h-9.9v4.7l11.8,0c1.8,0,3.3,1.5,3.3,3.3
	c0,1.8-1.5,3.3-3.3,3.3h-7.1v-7.8h-4.7v23.9h4.7l0-11.3h5.2c0,0,0.1,0,0.1,0c0,0,0.1,0,0.1,0h1.7c1.8,0,3.3,1.5,3.3,3.3
	s-1.5,3.3-3.3,3.3h-7.9v4.7h6c6.5,0,9.9-4,9.9-8c0-2.1-0.9-4.1-2.5-5.5l-0.1-0.1l0.1-0.1c1.6-1.5,2.5-3.4,2.5-5.5
	C116.8,545.9,115.8,543.8,114.1,542.3z"/>
  <!-- letter: R -->
  <path id="letter-r" fill-rule="evenodd" d="M187.7,671.8c-1.8-1.5-4.3-2.3-7.1-2.3h-9.9v4.7l11.8,0c1.8,0,3.3,1.5,3.3,3.3
	c0,1.8-1.5,3.3-3.3,3.3h-7.1v-7.8h-4.7v23.9h4.7l0-11.3h5.2c0,0,0.1,0,0.1,0c0,0,0.1,0,0.1,0h1.7c1.8,0,3.3,1.5,3.3,3.3v8h4.7v-8
	c0-2.1-0.9-4.1-2.5-5.5l-0.1-0.1l0.1-0.1c1.6-1.5,2.5-3.4,2.5-5.5C190.4,675.3,189.4,673.3,187.7,671.8z"/>
  <!-- letter: I -->
  <polygon id="letter-r" points="115.1,490.6 110.4,490.6 110.4,517.9 115.1,517.9 "/>
  <!-- letter: D -->
  <path id="letter-d" fill-rule="evenodd" d="M99.5,485h-9.7v27.3h4.7l0-22.6h5c5.2,0,8.5,3.4,8.5,8.9s-3.2,8.9-8.5,8.9h-7.6v4.7h7.6
	c7.5,0,13.2-5.9,13.2-13.7C112.6,490.8,107,485,99.5,485z"/>
</svg>