<svg version="1.1" xmlns="http://www.w3.org/2000/svg">
  <!-- letter: B -->
  <path id="b" fill-rule="evenodd" d="M101.449275,60.12 C108.937236,62.8800138 114.734279,66.8999736 118.84058,72.18 C122.94688,77.4600264 125,83.8199628 125,91.26 C125,102.300055 120.410674,110.84997 111.231884,116.91 C102.053094,122.97003 88.7682029,126 71.3768116,126 L0,126 L0,0 L67.7536232,0 C84.6619203,0 97.4335317,2.99997 106.068841,9 C114.704149,15.00003 119.021739,22.9799502 119.021739,32.94 C119.021739,38.8200294 117.542285,44.0999766 114.583333,48.78 C111.624381,53.4600234 107.246406,57.2399856 101.449275,60.12 Z M42.0289855,29.7 L42.0289855,48.42 L61.9565217,48.42 C71.2560851,48.42 75.9057971,45.3000312 75.9057971,39.06 C75.9057971,32.8199688 71.2560851,29.7 61.9565217,29.7 L42.0289855,29.7 Z M67.7536232,96.3 C77.1739601,96.3 81.884058,93.000033 81.884058,86.4 C81.884058,79.799967 77.1739601,76.5 67.7536232,76.5 L42.0289855,76.5 L42.0289855,96.3 L67.7536232,96.3 Z"/>
  <!-- letter: R -->
  <path id="r" fill-rule="evenodd" d="M51.834,90.728 L40.826,90.728 L40.826,121 L0.234,121 L0.234,0.6 L58.198,0.6 C69.3207223,0.6 79.0099587,2.43464832 87.266,6.104 C95.5220413,9.77335168 101.885978,15.0479656 106.358,21.928 C110.830022,28.8080344 113.066,36.8346208 113.066,46.008 C113.066,54.608043 111.116686,62.1186346 107.218,68.54 C103.319314,74.9613654 97.7007034,80.0639811 90.362,83.848 L115.646,121 L72.302,121 L51.834,90.728 Z M72.13,46.008 C72.13,41.5359776 70.7540138,38.0673457 68.002,35.602 C65.2499862,33.1366543 61.1220275,31.904 55.618,31.904 L40.826,31.904 L40.826,60.112 L55.618,60.112 C61.1220275,60.112 65.2499862,58.8793457 68.002,56.414 C70.7540138,53.9486543 72.13,50.4800224 72.13,46.008 Z"/>
  <!-- letter: I -->
  <polygon id="i" fill-rule="evenodd" points=".204 .6 40.796 .6 40.796 121 .204 121"/>
  <!-- letter: D -->
  <path id="d" fill-rule="evenodd" d="M0.268,0.6 L59.608,0.6 C73.0240671,0.6 84.863282,3.0366423 95.126,7.91 C105.388718,12.7833577 113.357972,19.749288 119.034,28.808 C124.710028,37.866712 127.548,48.5306053 127.548,60.8 C127.548,73.0693947 124.710028,83.733288 119.034,92.792 C113.357972,101.850712 105.388718,108.816642 95.126,113.69 C84.863282,118.563358 73.0240671,121 59.608,121 L0.268,121 L0.268,0.6 Z M57.888,89.352 C66.6027102,89.352 73.5686406,86.8580249 78.786,81.87 C84.0033594,76.8819751 86.612,69.858712 86.612,60.8 C86.612,51.741288 84.0033594,44.7180249 78.786,39.73 C73.5686406,34.7419751 66.6027102,32.248 57.888,32.248 L40.86,32.248 L40.86,89.352 L57.888,89.352 Z"/>
</svg>