<svg xmlns="http://www.w3.org/2000/svg" width="16.09" height="11.88" viewBox="0 0 16.09 11.88">
  <path fill="currentColor" d="M3938.25,2731.4a2.419,2.419,0,0,0-2.32-2.51c-1.75-.08-3.52-0.11-5.34-0.11h-0.56c-1.81,0-3.59.03-5.33,0.11a2.43,2.43,0,0,0-2.33,2.52c-0.08,1.1-.11,2.2-0.11,3.3s0.03,2.2.11,3.31a2.428,2.428,0,0,0,2.32,2.52c1.83,0.08,3.71.12,5.62,0.12s3.78-.04,5.61-0.12a2.43,2.43,0,0,0,2.33-2.52c0.07-1.11.11-2.21,0.11-3.31S3938.33,2732.51,3938.25,2731.4Zm-10.28,6.34v-6.07l6.16,3.03Z" transform="translate(-3922.25 -2728.78)"/>
</svg>
